<?xml version="1.0" encoding="UTF-8"?>
<svg version="1.1" xmlns="http://www.w3.org/2000/svg" width="947" height="836">
<path d="M0 0 C4.52044564 3.83827527 8.90885025 7.82395556 13.3059082 11.80224609 C25.66759964 22.98288421 39.06879575 33.09763091 52.7043457 42.67333984 C65.13392239 51.40809716 65.13392239 51.40809716 66.74731445 57.21630859 C67.00362109 60.12838823 66.77560611 62.4269263 64.92700195 64.75927734 C58.84418648 70.04934493 52.80778563 69.53566766 45.1809082 69.17724609 C42.74096095 68.86232585 40.30356976 68.52725402 37.8684082 68.17724609 C30.13031647 67.13867424 22.39493213 66.92480088 14.59561157 66.87768555 C12.61704517 66.86513393 10.63858121 66.83879243 8.66015625 66.81201172 C-4.43735966 66.81868944 -19.18307151 67.9928122 -29.6550293 76.70458984 C-35.28277428 82.53822794 -36.92050457 89.825434 -37.2565918 97.73974609 C-36.16685929 131.87016822 -11.73375742 163.58546814 11.63012695 186.61083984 C13.93370378 188.88385202 16.09396812 191.20409904 18.18481445 193.67333984 C23.49579153 199.82281428 29.33571202 205.48051749 35.08691406 211.21362305 C37.113538 213.23488877 39.13476368 215.26144183 41.15551758 217.28857422 C46.73459775 222.87023392 52.28282093 228.41026832 58.30419922 233.51879883 C63.37503274 237.99989316 68.01240842 242.97589026 72.7590332 247.79443359 C76.40025535 251.46916392 80.01852822 255.10668839 83.95825195 258.46240234 C89.56840938 263.27533428 94.72123704 268.5687712 99.93554688 273.80151367 C101.73952905 275.61085542 103.54879485 277.41478929 105.35864258 279.21826172 C110.68158989 284.53846142 115.93029483 289.85852923 120.81347656 295.59155273 C122.66140091 297.73443233 124.6508028 299.70774086 126.6809082 301.67724609 C130.7298047 305.68531338 134.48055843 309.84922358 138.1809082 314.17724609 C139.03040039 315.13759766 139.87989258 316.09794922 140.75512695 317.08740234 C161.92806656 341.15068515 180.54648652 368.33218913 194.29711914 397.32421875 C195.14920054 399.11076512 196.0278591 400.88456113 196.9074707 402.65771484 C218.62561152 447.33361638 231.69052364 503.65508365 215.1809082 552.17724609 C201.14384229 592.1728095 172.68253837 620.48471198 136.1809082 641.17724609 C135.38765137 641.6280957 134.59439453 642.07894531 133.77709961 642.54345703 C75.92517164 675.01243393 7.17888682 687.46228094 -58.6315918 687.36474609 C-59.52459991 687.36347717 -60.41760803 687.36220825 -61.337677 687.36090088 C-142.83068035 687.14198686 -222.35881713 666.94487001 -332.8190918 616.17724609 C-334.21949707 615.41420166 -334.21949707 615.41420166 -335.64819336 614.63574219 C-357.04352991 602.94619086 -378.22566043 590.72952845 -397.8190918 576.17724609 C-399.57287743 574.92475627 -401.33348385 573.68226335 -403.09448242 572.43994141 C-413.97807083 564.75006173 -424.46271284 556.5617705 -434.8190918 548.17724609 C-435.65569336 547.50435547 -436.49229492 546.83146484 -437.35424805 546.13818359 C-442.83589634 541.69796774 -448.22509785 537.15649548 -453.5690918 532.55224609 C-454.18292725 532.02606689 -454.7967627 531.4998877 -455.42919922 530.95776367 C-459.17530566 527.71241691 -462.72782265 524.33787122 -466.1887207 520.78955078 C-467.87533215 519.12162895 -469.63273428 517.58293123 -471.4440918 516.05224609 C-480.21236003 508.48042772 -488.38783702 500.05767981 -495.8190918 491.17724609 C-496.56288086 490.32259766 -497.30666992 489.46794922 -498.07299805 488.58740234 C-523.16596248 459.33191173 -523.16596248 459.33191173 -522.22143555 446.20068359 C-520.90436752 439.57698224 -515.95240801 436.66678384 -510.76196289 433.09033203 C-505.60260898 429.73636677 -500.22043053 426.80722918 -494.8190918 423.86474609 C-493.62439463 423.20933147 -492.42998033 422.55340099 -491.23583984 421.89697266 C-489.44664818 420.91368835 -487.65718417 419.9309347 -485.86637878 418.95059204 C-482.34279066 417.02092058 -478.83425238 415.0672336 -475.33862305 413.08740234 C-474.53231445 412.63212158 -473.72600586 412.17684082 -472.89526367 411.70776367 C-471.44506081 410.88741057 -469.99693791 410.06336297 -468.55151367 409.23461914 C-461.56663154 405.30518856 -454.97816938 402.2409585 -446.8190918 403.17724609 C-441.68842013 406.3481694 -439.16111013 411.01198111 -436.1315918 416.05224609 C-427.77724735 429.5836417 -418.56633923 442.06037015 -408.39233398 454.27929688 C-406.98050238 455.98252141 -405.58894277 457.69993654 -404.2019043 459.42333984 C-397.33882679 467.81570408 -389.72551298 475.45458669 -382.0690918 483.11474609 C-381.5253894 483.6594455 -380.98168701 484.2041449 -380.42150879 484.76535034 C-374.39910329 490.78650714 -368.29720519 496.64321337 -361.8190918 502.17724609 C-360.2742792 503.5904816 -358.73213855 505.00665018 -357.1940918 506.42724609 C-351.59165938 511.47540437 -345.70374979 516.09969034 -339.73168945 520.69726562 C-337.80648904 522.18699819 -335.89611459 523.69424089 -333.98706055 525.20458984 C-305.81025254 547.33536212 -274.80044205 565.20405803 -242.8190918 581.17724609 C-242.00037598 581.59055176 -241.18166016 582.00385742 -240.33813477 582.4296875 C-185.55007097 609.96694803 -121.86432472 626.77925045 -60.8190918 631.17724609 C-60.03856445 631.23364258 -59.25803711 631.29003906 -58.45385742 631.34814453 C4.51813032 635.67778893 82.69993337 628.55484841 133.26293945 586.86865234 C135.1843737 585.22428207 135.1843737 585.22428207 136.81762695 583.45458984 C138.1809082 582.17724609 138.1809082 582.17724609 140.1809082 582.17724609 C140.44645508 581.58814453 140.71200195 580.99904297 140.9855957 580.39208984 C142.21227646 578.11912255 143.52503161 576.59931259 145.3059082 574.73974609 C163.44095525 554.30482821 168.48088858 527.7173473 167.1809082 501.17724609 C162.96908306 454.44200518 131.85430724 412.38609149 102.1809082 378.17724609 C101.60469727 377.50048828 101.02848633 376.82373047 100.43481445 376.12646484 C89.84948853 363.7989157 78.39284112 352.22360505 66.89233398 340.75830078 C64.78291163 338.65430872 62.67898382 336.54492575 60.57543945 334.43505859 C59.20727086 333.06754988 57.83879259 331.70035089 56.4699707 330.33349609 C55.85521881 329.71671997 55.24046692 329.09994385 54.60708618 328.46447754 C50.83055565 324.70795842 46.93254396 321.14458574 42.89437866 317.67053223 C40.25918967 315.37397021 37.85670779 312.87718138 35.4309082 310.36474609 C33.47892086 308.46698063 31.48574502 306.67993157 29.4309082 304.89599609 C24.55229434 300.65882961 19.8712812 296.22574396 15.1809082 291.78271484 C11.21157095 288.03820333 7.17647425 284.39324532 3.0559082 280.81591797 C0.386354 278.48283883 -2.2149712 276.08322708 -4.8190918 273.67724609 C-8.77678317 270.03210196 -12.77088354 266.43808797 -16.8347168 262.91162109 C-20.8728387 259.38223895 -24.83823861 255.77090384 -28.8190918 252.17724609 C-30.48550031 250.6769593 -32.15216532 249.17695737 -33.8190918 247.67724609 C-34.65053711 246.92830078 -35.48198242 246.17935547 -36.33862305 245.40771484 C-37.93757825 243.96991418 -39.53896194 242.53480736 -41.14331055 241.10302734 C-43.71235739 238.80574744 -46.26800275 236.49445533 -48.8190918 234.17724609 C-49.30845215 233.73445312 -49.7978125 233.29166016 -50.30200195 232.83544922 C-58.9074737 225.02057672 -67.2168518 216.9063712 -75.45996094 208.71261597 C-76.59976649 207.58021201 -77.74116044 206.44940419 -78.88427734 205.32034302 C-86.02191287 198.26238501 -92.57715442 191.04982027 -98.8190918 183.17724609 C-99.71683151 182.11382717 -100.62038456 181.05523822 -101.53393555 180.00537109 C-127.04874273 150.40998842 -145.99043098 111.13608634 -143.98754883 71.40527344 C-142.27226161 48.71873551 -131.77445004 30.75955086 -114.8190918 16.17724609 C-85.89502701 -6.80446059 -32.17098396 -26.56059162 0 0 Z " fill="#000000" transform="translate(593.819091796875,64.82275390625)"/>
<path d="M0 0 C1.07765625 0.33225586 2.1553125 0.66451172 3.265625 1.00683594 C20.30044226 6.32031237 36.71488051 12.71792513 53 20 C54.29043213 20.57186035 54.29043213 20.57186035 55.60693359 21.15527344 C69.22388516 27.23090667 82.14069975 34.46984162 95 42 C95.80856445 42.47195801 96.61712891 42.94391602 97.45019531 43.43017578 C144.40718478 71.00225487 202.64748321 114.76406645 222 168 C222.44879888 174.37558416 222.44879888 174.37558416 220.5625 177 C216.45455172 178.60310177 213.19711605 178.25143368 209 177 C202.35200974 173.63724108 196.64526563 168.98654499 190.89453125 164.3046875 C178.41714876 154.36992951 165.06250125 145.60565252 151.8125 136.75 C151.04649475 136.23671143 150.2804895 135.72342285 149.49127197 135.19458008 C139.49140216 128.5014529 129.38400742 122.08033467 119 116 C118.08710205 115.46262207 117.1742041 114.92524414 116.23364258 114.37158203 C62.20412952 82.74947245 4.40624457 59.84788673 -58 52 C-58.928125 51.87995605 -59.85625 51.75991211 -60.8125 51.63623047 C-112.64409528 45.24303186 -165.94337056 51.55040416 -216.63134766 62.76464844 C-217.30474686 62.91312729 -217.97814606 63.06160614 -218.67195129 63.21458435 C-220.49476946 63.61828441 -222.31639909 64.02734052 -224.13793945 64.43676758 C-227 65 -227 65 -230 65 C-217.46514082 101.7857174 -186.52140358 135.44706793 -157 160 C-156.1946582 160.67603271 -156.1946582 160.67603271 -155.37304688 161.36572266 C-87.73228351 217.99225477 -2.58214303 249.90112703 88.58984375 272.0703125 C89.26330841 272.23152084 89.93677307 272.39272919 90.63064575 272.55882263 C93.75359206 273.3042589 96.87851224 274.03873619 100.0078125 274.75708008 C110.94705216 277.30983904 110.94705216 277.30983904 116 280 C116.9375 282.6875 116.9375 282.6875 117 285 C111.25757091 289.09687333 105.92847148 291.19794194 99.0625 292.6875 C98.13937012 292.89536133 97.21624023 293.10322266 96.26513672 293.31738281 C87.87377668 295.14354187 79.55775462 296.34952934 71 297 C70.21125488 297.06703125 69.42250977 297.1340625 68.60986328 297.203125 C-28.3467872 305.04257429 -128.66512739 266.60251565 -217 204 C-217.59651367 203.52530273 -218.19302734 203.05060547 -218.80761719 202.56152344 C-231.58692665 192.35966039 -244.21680183 182.06625115 -255.64453125 170.3515625 C-257.59026886 168.40905166 -259.54124001 166.64850447 -261.6875 164.9375 C-262.450625 164.298125 -263.21375 163.65875 -264 163 C-264 162.34 -264 161.68 -264 161 C-264.66 161 -265.32 161 -266 161 C-267.41015625 159.6015625 -267.41015625 159.6015625 -269.0625 157.625 C-271.6824904 154.53158218 -274.36221444 151.52880568 -277.125 148.5625 C-282.97431217 142.07652801 -288.18027893 135.10793816 -293.40966797 128.12109375 C-294.8589679 126.18810053 -296.32042537 124.26505465 -297.78515625 122.34375 C-310.25120363 105.84188259 -320.89879155 88.0224779 -331 70 C-331.50837402 69.09685059 -332.01674805 68.19370117 -332.54052734 67.26318359 C-351.16142772 34.07138595 -351.16142772 34.07138595 -350.9375 22.875 C-348.97723183 16.86351096 -344.73378171 13.35310465 -339.25 10.5625 C-328.74303046 5.44675773 -317.28778562 2.80901428 -306 0 C-304.8435498 -0.28875 -303.68709961 -0.5775 -302.49560547 -0.875 C-268.82891369 -9.14514553 -234.49154976 -14.63892534 -200 -18 C-198.83871582 -18.11714355 -197.67743164 -18.23428711 -196.48095703 -18.35498047 C-131.13021713 -24.70236796 -62.81320229 -19.47928506 0 0 Z " fill="#000000" transform="translate(502,372)"/>
</svg>
